<svg xmlns="http://www.w3.org/2000/svg" viewBox="0 0 24 24">
    <style>
        :root { color: #149086; }
        @media (prefers-color-scheme: dark) {
          :root { color: #149086; }
        }
    </style>
    <g
        fill="currentColor"
        stroke="black"
        stroke-width="0.3"
        stroke-linejoin="round"
        transform="translate(-0.06641901,1.9261514)">
        <g transform="matrix(2.45,0,0,2.45,-17.4,-7.6)">
          <path d="M 12.023309,3.2777606 C 10.326601,4.4271433 9.3961484,5.9596535 9.6150784,7.5468962 9.8340084,9.1341389 10.764461,10.447719 11.913843,11.049776 13.172692,10.447719 14.212609,9.0246739 14.376806,7.3826987 14.541004,5.795456 13.665284,4.3724108 12.023309,3.2777606 Z" style="stroke-width:0.328588;stroke-dasharray:none" />
          <path d="m 14.179888,3.9197743 c -1.570785,0.4998148 -2.66828,1.5846509 -2.919768,3.0797712 -0.251489,1.4951202 0.10122,2.9678577 0.803996,3.8699815 1.099815,-0.145534 2.250598,-1.0976118 2.803186,-2.5215491 0.538265,-1.3747536 0.25517,-2.9286642 -0.687414,-4.4282036 z" style="stroke-width:0.285484;stroke-dasharray:none" />
          <path d="M 9.8689107,3.8959111 C 11.439696,4.3957259 12.537191,5.480562 12.788679,6.9756823 13.040168,8.4708025 12.687459,9.9435402 11.984683,10.845664 10.884868,10.70013 9.7340847,9.7480532 9.1814967,8.3241147 8.6432317,6.9493611 8.9263267,5.3954505 9.8689107,3.8959111 Z" style="stroke-width:0.285484;stroke-dasharray:none" />
          <path d="m 16.741858,4.6509614 c -2.047634,-0.084246 -3.798233,0.7518054 -4.56565,2.1583415 -0.767414,1.4065359 -0.799977,3.0159393 -0.233559,4.1832931 1.370188,0.264117 3.052322,-0.262107 4.160367,-1.4849228 1.075512,-1.1788018 -1.133824,-2.7914538 0.638842,-4.8567118 z" style="stroke-width:0.328588;stroke-dasharray:none" />
          <path d="m 7.2847603,4.6509614 c 2.0476328,-0.084246 3.7982317,0.7518054 4.5656487,2.1583415 0.767414,1.4065359 0.799978,3.0159393 0.233559,4.1832931 C 10.71378,11.256713 9.0316467,10.730489 7.9236013,9.5076732 6.848089,8.3288714 9.0574257,6.7162194 7.2847603,4.6509614 Z" style="stroke-width:0.328588;stroke-dasharray:none" />
        </g>
    </g>
</svg>
