<svg xmlns="http://www.w3.org/2000/svg" viewBox="0 0 24 24">
  <style>
    :root { color: #149086; }
    @media (prefers-color-scheme: dark) {
      :root { color: #149086; }
    }
  </style>
  <g fill="mask" stroke="currentColor" stroke-width="0.3" stroke-linejoin="round">
    <g transform="translate(12, 12) scale(2.45) translate(-12, -8)">
      <path d="M12.1 3.65c-1.55 1.05-2.4 2.45-2.2 3.9.2 1.45 1.05 2.65 2.1 3.2 1.15-.55 2.1-1.85 2.25-3.35.15-1.45-.65-2.75-2.15-3.75z"/>

      <path d="M12.45 12.2c2.25-.5 3.85-1.85 4.15-3.55.25-1.3-.3-2.65-1.45-3.6-1.2.2-2.4.95-2.95 2.15z"/>
      <path d="M11.6 12.2c-2.25-.45-3.85-1.75-4.2-3.4-.25-1.25.25-2.65 1.35-3.65 1.25.15 2.45.85 3.05 2z"/>
      <g transform="translate(-1.2, 0)">
        <path d="M12.1 5.45c-1.55 1.05-2.4 2.45-2.2 3.9.2 1.45 1.05 2.65 2.1 3.2 1.15-.55 2.1-1.85 2.25-3.35.15-1.45-.65-2.75-2.15-3.75z" transform="rotate(-15, 10.1, 8)"/>
      </g>
      
      <g transform="translate(1.2, 0)">
        <path d="M12.1 5.45c-1.55 1.05-2.4 2.45-2.2 3.9.2 1.45 1.05 2.65 2.1 3.2 1.15-.55 2.1-1.85 2.25-3.35.15-1.45-.65-2.75-2.15-3.75z" transform="rotate(15, 14.1, 8)"/>
      </g>
      <path d="M12.1 5.45c-1.55 1.05-2.4 2.45-2.2 3.9.2 1.45 1.05 2.65 2.1 3.2 1.15-.55 2.1-1.85 2.25-3.35.15-1.45-.65-2.75-2.15-3.75z" />
    </g>
  </g>
</svg>
